<?xml version="1.0" encoding="UTF-8" standalone="no"?>
<svg
   xmlns:dc="http://purl.org/dc/elements/1.1/"
   xmlns:cc="http://creativecommons.org/ns#"
   xmlns:rdf="http://www.w3.org/1999/02/22-rdf-syntax-ns#"
   xmlns:svg="http://www.w3.org/2000/svg"
   xmlns="http://www.w3.org/2000/svg"
   xmlns:sodipodi="http://sodipodi.sourceforge.net/DTD/sodipodi-0.dtd"
   xmlns:inkscape="http://www.inkscape.org/namespaces/inkscape"
   viewBox="0 0 24 24"
   version="1.1"
   id="svg14"
   sodipodi:docname="history-alt.svg"
   inkscape:version="1.0.1 (3bc2e813f5, 2020-09-07)">
  <metadata
     id="metadata20">
    <rdf:RDF>
      <cc:Work
         rdf:about="">
        <dc:format>image/svg+xml</dc:format>
        <dc:type
           rdf:resource="http://purl.org/dc/dcmitype/StillImage" />
      </cc:Work>
    </rdf:RDF>
  </metadata>
  <defs
     id="defs18" />
  <sodipodi:namedview
     pagecolor="#ffffff"
     bordercolor="#666666"
     borderopacity="1"
     objecttolerance="10"
     gridtolerance="10"
     guidetolerance="10"
     inkscape:pageopacity="0"
     inkscape:pageshadow="2"
     inkscape:window-width="1366"
     inkscape:window-height="683"
     id="namedview16"
     showgrid="false"
     inkscape:zoom="16.292919"
     inkscape:cx="12.350546"
     inkscape:cy="12.853894"
     inkscape:window-x="0"
     inkscape:window-y="24"
     inkscape:window-maximized="1"
     inkscape:current-layer="svg14" />
  <path
     d="M11.44,2A10,10,0,0,0,4.56,4.77V3a1,1,0,0,0-2,0V7.5a1,1,0,0,0,1,1H8.06a1,1,0,0,0,0-2H5.66A8,8,0,1,1,11.44,20a1,1,0,1,0,0,2,10,10,0,1,0,0-20Zm0,6a1,1,0,0,0-1,1v3a1,1,0,0,0,1,1h2a1,1,0,0,0,0-2h-1V9A1,1,0,0,0,11.44,8Z"
     id="path12"
     style="fill:#6563ff;fill-opacity:1" />
</svg>
