<?xml version="1.0" encoding="UTF-8" standalone="no"?>
<svg
   xmlns:dc="http://purl.org/dc/elements/1.1/"
   xmlns:cc="http://creativecommons.org/ns#"
   xmlns:rdf="http://www.w3.org/1999/02/22-rdf-syntax-ns#"
   xmlns:svg="http://www.w3.org/2000/svg"
   xmlns="http://www.w3.org/2000/svg"
   xmlns:sodipodi="http://sodipodi.sourceforge.net/DTD/sodipodi-0.dtd"
   xmlns:inkscape="http://www.inkscape.org/namespaces/inkscape"
   data-name="Layer 1"
   viewBox="0 0 24 24"
   version="1.1"
   id="svg4"
   sodipodi:docname="house-user.svg"
   inkscape:version="1.0.1 (3bc2e813f5, 2020-09-07)">
  <metadata
     id="metadata10">
    <rdf:RDF>
      <cc:Work
         rdf:about="">
        <dc:format>image/svg+xml</dc:format>
        <dc:type
           rdf:resource="http://purl.org/dc/dcmitype/StillImage" />
      </cc:Work>
    </rdf:RDF>
  </metadata>
  <defs
     id="defs8" />
  <sodipodi:namedview
     pagecolor="#ffffff"
     bordercolor="#666666"
     borderopacity="1"
     objecttolerance="10"
     gridtolerance="10"
     guidetolerance="10"
     inkscape:pageopacity="0"
     inkscape:pageshadow="2"
     inkscape:window-width="1366"
     inkscape:window-height="687"
     id="namedview6"
     showgrid="false"
     inkscape:zoom="10.729167"
     inkscape:cx="13.735657"
     inkscape:cy="17.803176"
     inkscape:window-x="0"
     inkscape:window-y="22"
     inkscape:window-maximized="1"
     inkscape:current-layer="svg4" />
  <path
     d="M21.66406,10.25244l-9-8a.99893.99893,0,0,0-1.32812,0l-9,8a.99991.99991,0,0,0,1.32812,1.49512L4,11.449V21a.99974.99974,0,0,0,1,1H19a.99974.99974,0,0,0,1-1V11.449l.33594.29859a.99991.99991,0,0,0,1.32812-1.49512ZM9.18427,20a2.98208,2.98208,0,0,1,5.63146,0ZM10.5,14.5A1.5,1.5,0,1,1,12,16,1.50164,1.50164,0,0,1,10.5,14.5ZM18,20H16.89893a5.00092,5.00092,0,0,0-2.25867-3.22821A3.46849,3.46849,0,0,0,15.5,14.5a3.5,3.5,0,0,0-7,0,3.46849,3.46849,0,0,0,.85974,2.27179A5.00092,5.00092,0,0,0,7.10107,20H6V9.6712l6-5.33331L18,9.6712Z"
     id="path2"
     style="fill:#6563ff;fill-opacity:1" />
</svg>
