<?xml version="1.0" encoding="UTF-8" standalone="no"?>
<svg
   xmlns:dc="http://purl.org/dc/elements/1.1/"
   xmlns:cc="http://creativecommons.org/ns#"
   xmlns:rdf="http://www.w3.org/1999/02/22-rdf-syntax-ns#"
   xmlns:svg="http://www.w3.org/2000/svg"
   xmlns="http://www.w3.org/2000/svg"
   xmlns:sodipodi="http://sodipodi.sourceforge.net/DTD/sodipodi-0.dtd"
   xmlns:inkscape="http://www.inkscape.org/namespaces/inkscape"
   viewBox="0 0 24 24"
   version="1.1"
   id="svg4"
   sodipodi:docname="save-ml.svg"
   inkscape:version="1.0.1 (3bc2e813f5, 2020-09-07)">
  <metadata
     id="metadata10">
    <rdf:RDF>
      <cc:Work
         rdf:about="">
        <dc:format>image/svg+xml</dc:format>
        <dc:type
           rdf:resource="http://purl.org/dc/dcmitype/StillImage" />
        <dc:title></dc:title>
      </cc:Work>
    </rdf:RDF>
  </metadata>
  <defs
     id="defs8" />
  <sodipodi:namedview
     pagecolor="#ffffff"
     bordercolor="#666666"
     borderopacity="1"
     objecttolerance="10"
     gridtolerance="10"
     guidetolerance="10"
     inkscape:pageopacity="0"
     inkscape:pageshadow="2"
     inkscape:window-width="1054"
     inkscape:window-height="637"
     id="namedview6"
     showgrid="false"
     inkscape:zoom="5.6568543"
     inkscape:cx="16.739802"
     inkscape:cy="-9.2578491"
     inkscape:window-x="306"
     inkscape:window-y="41"
     inkscape:window-maximized="0"
     inkscape:current-layer="layer2" />
  <g
     inkscape:groupmode="layer"
     id="layer1"
     inkscape:label="Layer 1"
     style="display:inline"
     sodipodi:insensitive="true">
    <path
       fill="#6563ff"
       d="M 4.9344595,6.3738696 H 22.934459 a 1,1 0 0 0 0,-2 H 4.9344595 a 1,1 0 0 0 0,2 z m 0,4.0000004 H 18.934459 a 1.0000002,1.0000002 0 0 0 0,-2.0000004 H 4.9344595 a 1.0000002,1.0000002 0 0 0 0,2.0000004 z m 17.9999995,2 H 4.9344595 a 1,1 0 0 0 0,2 H 22.934459 a 1,1 0 0 0 0,-2 z m -4,4 H 4.9344595 a 1,1 0 0 0 0,2 H 18.934459 a 1,1 0 0 0 0,-2 z"
       id="path2" />
  </g>
  <g
     inkscape:groupmode="layer"
     id="layer2"
     inkscape:label="Layer 2">
    <path
       fill="#6563ff"
       d="m 21.668148,6.1958717 a 1.5462977,1.5462977 0 0 0 -2.195743,0 L 7.9524867,17.731252 3.1125749,12.875878 a 1.5801959,1.5801959 0 1 0 -2.19574249,2.273057 l 5.93778299,5.937783 a 1.5462977,1.5462977 0 0 0 2.1957427,0 L 21.668148,8.4689294 a 1.5462977,1.5462977 0 0 0 0,-2.2730577 z"
       id="path2-7"
       style="stroke:#ffffff;stroke-width:0.618519;stroke-miterlimit:4;stroke-dasharray:none;stroke-opacity:1" />
  </g>
</svg>
