<?xml version="1.0" encoding="UTF-8" standalone="no"?>
<svg
   xmlns:dc="http://purl.org/dc/elements/1.1/"
   xmlns:cc="http://creativecommons.org/ns#"
   xmlns:rdf="http://www.w3.org/1999/02/22-rdf-syntax-ns#"
   xmlns:svg="http://www.w3.org/2000/svg"
   xmlns="http://www.w3.org/2000/svg"
   xmlns:sodipodi="http://sodipodi.sourceforge.net/DTD/sodipodi-0.dtd"
   xmlns:inkscape="http://www.inkscape.org/namespaces/inkscape"
   viewBox="0 0 24 24"
   version="1.1"
   id="svg4"
   sodipodi:docname="toolbar-popup.svg"
   inkscape:version="1.0.1 (3bc2e813f5, 2020-09-07)">
  <metadata
     id="metadata10">
    <rdf:RDF>
      <cc:Work
         rdf:about="">
        <dc:format>image/svg+xml</dc:format>
        <dc:type
           rdf:resource="http://purl.org/dc/dcmitype/StillImage" />
        <dc:title></dc:title>
      </cc:Work>
    </rdf:RDF>
  </metadata>
  <defs
     id="defs8" />
  <sodipodi:namedview
     pagecolor="#ffffff"
     bordercolor="#666666"
     borderopacity="1"
     objecttolerance="10"
     gridtolerance="10"
     guidetolerance="10"
     inkscape:pageopacity="0"
     inkscape:pageshadow="2"
     inkscape:window-width="1366"
     inkscape:window-height="687"
     id="namedview6"
     showgrid="false"
     inkscape:zoom="10.729167"
     inkscape:cx="6.7471676"
     inkscape:cy="17.229901"
     inkscape:window-x="0"
     inkscape:window-y="22"
     inkscape:window-maximized="1"
     inkscape:current-layer="svg4" />
  <path
     d="M 19,22.000279 H 5 a -3,3 0 0 1 -3,-3 V 9.0002787 a -3,3 0 0 1 3,-3 h 11.59 l 3.7,-3.71 a -1,1 0 0 1 0.71,-0.29 -0.84,0.84 0 0 1 0.38,0.08 -1,1 0 0 1 0.62,0.92 V 19.000279 a -3,3 0 0 1 -3,3 z m 1,-16.5900003 -2.29,2.3 a -1,1 0 0 1 -0.71,0.29 H 5 a -1,1 0 0 0 -1,1 V 19.000279 a -1,1 0 0 0 1,1 h 14 a -1,1 0 0 0 1,-1 z"
     id="path2"
     style="fill:#6563ff;fill-opacity:1" />
</svg>
